<svg width="30" height="30" viewBox="0 0 30 30" fill="none" xmlns="http://www.w3.org/2000/svg">
<g id="fluent:data-usage-settings-20-regular">
<path id="Vector" d="M7.5 4.5C6.30653 4.5 5.16193 4.97411 4.31802 5.81802C3.47411 6.66193 3 7.80653 3 9V21C3 22.1935 3.47411 23.3381 4.31802 24.182C5.16193 25.0259 6.30653 25.5 7.5 25.5H14.4015C14.1565 25.0204 13.9591 24.518 13.812 24H7.5C6.70435 24 5.94129 23.6839 5.37868 23.1213C4.81607 22.5587 4.5 21.7956 4.5 21V9C4.5 8.20435 4.81607 7.44129 5.37868 6.87868C5.94129 6.31607 6.70435 6 7.5 6H19.5C20.2956 6 21.0587 6.31607 21.6213 6.87868C22.1839 7.44129 22.5 8.20435 22.5 9V13.5345C23.0075 13.581 23.5097 13.6744 24 13.8135V9C24 7.80653 23.5259 6.66193 22.682 5.81802C21.8381 4.97411 20.6935 4.5 19.5 4.5H7.5ZM13.5345 21C13.6193 20.0705 13.8612 19.1621 14.25 18.3135V15.75C14.25 15.5511 14.171 15.3603 14.0303 15.2197C13.8897 15.079 13.6989 15 13.5 15C13.3011 15 13.1103 15.079 12.9697 15.2197C12.829 15.3603 12.75 15.5511 12.75 15.75V20.25C12.7499 20.3515 12.7704 20.4519 12.8102 20.5452C12.85 20.6385 12.9084 20.7228 12.9817 20.7929C13.0551 20.863 13.1419 20.9175 13.2369 20.9531C13.3319 20.9887 13.4331 21.0047 13.5345 21ZM18.5925 14.1285C18.8895 14.0055 19.1925 13.9005 19.5 13.8135V9.75C19.5 9.55109 19.421 9.36032 19.2803 9.21967C19.1397 9.07902 18.9489 9 18.75 9C18.5511 9 18.3603 9.07902 18.2197 9.21967C18.079 9.36032 18 9.55109 18 9.75V14.4015C18.1935 14.3025 18.39 14.211 18.5925 14.1285ZM8.25 12C8.05109 12 7.86032 12.079 7.71967 12.2197C7.57902 12.3603 7.5 12.5511 7.5 12.75V20.25C7.5 20.4489 7.57902 20.6397 7.71967 20.7803C7.86032 20.921 8.05109 21 8.25 21C8.44891 21 8.63968 20.921 8.78033 20.7803C8.92098 20.6397 9 20.4489 9 20.25V12.75C9 12.5511 8.92098 12.3603 8.78033 12.2197C8.63968 12.079 8.44891 12 8.25 12ZM18.099 17.163C18.207 17.5479 18.237 17.9506 18.1872 18.3473C18.1374 18.744 18.0088 19.1267 17.809 19.473C17.6091 19.8193 17.3421 20.1222 17.0235 20.3638C16.705 20.6054 16.3413 20.7809 15.954 20.88L15.261 21.057C15.211 21.5641 15.216 22.075 15.276 22.581L15.801 22.7055C16.1987 22.7995 16.573 22.9739 16.9009 23.2177C17.2288 23.4616 17.5034 23.7699 17.708 24.1237C17.9125 24.4775 18.0425 24.8694 18.0902 25.2752C18.1378 25.6811 18.102 26.0925 17.985 26.484L17.7945 27.1185C18.1815 27.423 18.6 27.684 19.047 27.894L19.5345 27.378C19.8151 27.0808 20.1536 26.8441 20.529 26.6825C20.9044 26.5208 21.3089 26.4375 21.7176 26.4378C22.1264 26.4381 22.5308 26.5219 22.906 26.6841C23.2812 26.8463 23.6193 27.0834 23.8995 27.381L24.405 27.918C24.843 27.7155 25.257 27.465 25.638 27.171L25.404 26.337C25.296 25.9521 25.266 25.5494 25.3158 25.1527C25.3656 24.756 25.4942 24.3733 25.694 24.027C25.8939 23.6807 26.1609 23.3778 26.4795 23.1362C26.798 22.8946 27.1617 22.7191 27.549 22.62L28.239 22.443C28.2888 21.9354 28.2838 21.424 28.224 20.9175L27.702 20.7945C27.3041 20.7005 26.9297 20.5261 26.6017 20.2822C26.2736 20.0382 25.9989 19.7297 25.7944 19.3758C25.5898 19.0218 25.4598 18.6297 25.4123 18.2237C25.3648 17.8176 25.4007 17.4061 25.518 17.0145L25.707 16.383C25.3205 16.0767 24.9003 15.8155 24.4545 15.6045L23.967 16.1205C23.6865 16.4178 23.3481 16.6546 22.9728 16.8164C22.5974 16.9782 22.1929 17.0616 21.7842 17.0614C21.3754 17.0613 20.971 16.9776 20.5958 16.8156C20.2205 16.6535 19.8823 16.4165 19.602 16.119L19.0965 15.582C18.659 15.7838 18.2455 16.0339 17.8635 16.3275L18.099 17.163ZM21.75 23.25C21.3522 23.25 20.9706 23.092 20.6893 22.8107C20.408 22.5294 20.25 22.1478 20.25 21.75C20.25 21.3522 20.408 20.9706 20.6893 20.6893C20.9706 20.408 21.3522 20.25 21.75 20.25C22.1478 20.25 22.5294 20.408 22.8107 20.6893C23.092 20.9706 23.25 21.3522 23.25 21.75C23.25 22.1478 23.092 22.5294 22.8107 22.8107C22.5294 23.092 22.1478 23.25 21.75 23.25Z" fill="black"/>
</g>
</svg>
