<svg width="30" height="30" viewBox="0 0 30 30" fill="none" xmlns="http://www.w3.org/2000/svg">
<g id="octicon:play-24">
<path id="Vector" d="M11.875 19.48V10.52C11.8752 10.4079 11.9055 10.2979 11.9628 10.2015C12.0201 10.1052 12.1023 10.026 12.2007 9.97231C12.2991 9.91863 12.4102 9.89241 12.5222 9.89639C12.6342 9.90038 12.7431 9.93442 12.8375 9.99496L19.8075 14.4737C19.8958 14.5303 19.9684 14.6081 20.0187 14.7C20.069 14.792 20.0953 14.8951 20.0953 15C20.0953 15.1048 20.069 15.2079 20.0187 15.2999C19.9684 15.3918 19.8958 15.4697 19.8075 15.5262L12.8375 20.0062C12.7431 20.0667 12.6342 20.1008 12.5222 20.1048C12.4102 20.1088 12.2991 20.0825 12.2007 20.0288C12.1023 19.9752 12.0201 19.896 11.9628 19.7997C11.9055 19.7033 11.8752 19.5933 11.875 19.4812V19.48Z" fill="white"/>
<path id="Vector_2" d="M1.25 15C1.25 7.40625 7.40625 1.25 15 1.25C22.5938 1.25 28.75 7.40625 28.75 15C28.75 22.5938 22.5938 28.75 15 28.75C7.40625 28.75 1.25 22.5938 1.25 15ZM15 3.125C11.8506 3.125 8.8301 4.37611 6.60311 6.60311C4.37611 8.8301 3.125 11.8506 3.125 15C3.125 18.1494 4.37611 21.1699 6.60311 23.3969C8.8301 25.6239 11.8506 26.875 15 26.875C18.1494 26.875 21.1699 25.6239 23.3969 23.3969C25.6239 21.1699 26.875 18.1494 26.875 15C26.875 11.8506 25.6239 8.8301 23.3969 6.60311C21.1699 4.37611 18.1494 3.125 15 3.125Z" fill="white"/>
</g>
</svg>
