<svg width="26" height="24" viewBox="0 0 26 24" fill="none" xmlns="http://www.w3.org/2000/svg">
<path id="Vector" d="M25.0951 16.6698C24.9948 16.6064 24.8801 16.5693 24.7617 16.5622C24.6432 16.555 24.5249 16.5779 24.4177 16.6288C24.0756 16.7904 23.7022 16.8747 23.3239 16.8758C22.9456 16.8769 22.5716 16.7947 22.2287 16.635C21.8857 16.4754 21.582 16.2422 21.3392 15.9521C21.0965 15.6619 20.9205 15.3219 20.8239 14.9561C20.7273 14.5904 20.7123 14.2078 20.7801 13.8356C20.848 13.4634 20.9968 13.1107 21.2162 12.8025C21.4356 12.4943 21.7202 12.2382 22.0497 12.0523C22.3792 11.8664 22.7456 11.7553 23.1228 11.7268C23.568 11.6946 24.014 11.7778 24.4177 11.9682C24.5249 12.019 24.6431 12.0419 24.7615 12.0347C24.8799 12.0275 24.9945 11.9905 25.0947 11.9271C25.1949 11.8637 25.2775 11.776 25.3347 11.6722C25.392 11.5683 25.422 11.4517 25.422 11.3331V6.32918C25.422 5.89406 25.2492 5.47676 24.9415 5.16908C24.6338 4.8614 24.2165 4.68855 23.7814 4.68855H19.2673C19.3078 4.45636 19.3282 4.22112 19.3283 3.98543C19.3274 3.44128 19.2155 2.90304 18.9992 2.4037C18.783 1.90436 18.4671 1.45444 18.0708 1.08152C17.675 0.706158 17.2055 0.417046 16.6921 0.232476C16.1788 0.0479061 15.6327 -0.028104 15.0884 0.00925489C14.5284 0.0453402 13.9823 0.199313 13.486 0.461089C12.9896 0.722865 12.5541 1.08654 12.2081 1.5283C11.862 1.97006 11.6132 2.47993 11.4778 3.02454C11.3425 3.56914 11.3238 4.13619 11.4228 4.68855H6.90639C6.47127 4.68855 6.05397 4.8614 5.74629 5.16908C5.43862 5.47676 5.26577 5.89406 5.26577 6.32918V10.3757C4.61237 10.2586 3.94007 10.3066 3.30994 10.5153C2.67981 10.7241 2.11182 11.0869 1.65756 11.571C1.14247 12.1197 0.793314 12.803 0.650511 13.542C0.507709 14.2809 0.577101 15.0451 0.850656 15.7462C1.12421 16.4474 1.59074 17.0567 2.19623 17.5036C2.80173 17.9506 3.52143 18.2169 4.27202 18.2718C4.60412 18.2957 4.93793 18.2784 5.26577 18.2202V22.2667C5.26577 22.7018 5.43862 23.1191 5.74629 23.4268C6.05397 23.7344 6.47127 23.9073 6.90639 23.9073H23.7814C24.2165 23.9073 24.6338 23.7344 24.9415 23.4268C25.2492 23.1191 25.422 22.7018 25.422 22.2667V17.2639C25.422 17.1454 25.3921 17.0287 25.3349 16.9249C25.2777 16.821 25.1952 16.7332 25.0951 16.6698ZM24.0158 22.2667C24.0158 22.3288 23.9911 22.3885 23.9471 22.4324C23.9032 22.4764 23.8436 22.5011 23.7814 22.5011H6.90639C6.84423 22.5011 6.78462 22.4764 6.74066 22.4324C6.69671 22.3885 6.67202 22.3288 6.67202 22.2667V17.2639C6.67202 17.0775 6.59794 16.8986 6.46608 16.7668C6.33421 16.6349 6.15537 16.5608 5.96889 16.5608C5.86467 16.5606 5.76173 16.5838 5.66772 16.6288C5.28748 16.8091 4.86888 16.8936 4.44847 16.8748C4.02806 16.8561 3.61863 16.7348 3.25591 16.5214C2.8932 16.308 2.58823 16.0091 2.36763 15.6507C2.14703 15.2924 2.01751 14.8855 1.99038 14.4655C1.96114 14.0173 2.0495 13.5693 2.2467 13.1657C2.4439 12.7622 2.74309 12.4172 3.11465 12.1649C3.48621 11.9126 3.91724 11.7617 4.36505 11.7272C4.81285 11.6927 5.2619 11.7758 5.66772 11.9682C5.77488 12.019 5.89314 12.0419 6.0115 12.0347C6.12987 12.0275 6.2445 11.9905 6.34472 11.9271C6.44494 11.8637 6.52751 11.776 6.58473 11.6722C6.64196 11.5683 6.67198 11.4517 6.67202 11.3331V6.32918C6.67202 6.26702 6.69671 6.2074 6.74066 6.16345C6.78462 6.11949 6.84423 6.0948 6.90639 6.0948H12.3779C12.4965 6.09477 12.6131 6.06474 12.717 6.00752C12.8208 5.95029 12.9085 5.86773 12.9719 5.76751C13.0353 5.66728 13.0723 5.55266 13.0795 5.43429C13.0867 5.31592 13.0638 5.19766 13.013 5.09051C12.8265 4.68777 12.7458 4.24407 12.7787 3.80144C12.8061 3.42377 12.9164 3.05678 13.1017 2.72656C13.287 2.39634 13.5428 2.11099 13.8508 1.8908C14.1589 1.67061 14.5117 1.52098 14.8841 1.45255C15.2565 1.38412 15.6395 1.39857 16.0057 1.49487C16.3719 1.59117 16.7124 1.76697 17.003 2.00975C17.2936 2.25253 17.5271 2.55635 17.687 2.8996C17.8469 3.24284 17.9292 3.6171 17.9281 3.99576C17.927 4.37443 17.8425 4.7482 17.6806 5.09051C17.6301 5.19712 17.6072 5.31475 17.614 5.43255C17.6209 5.55034 17.6572 5.66452 17.7198 5.76456C17.7824 5.8646 17.8691 5.94728 17.972 6.00499C18.075 6.06271 18.1907 6.09359 18.3087 6.0948H23.7814C23.8436 6.0948 23.9032 6.11949 23.9471 6.16345C23.9911 6.2074 24.0158 6.26702 24.0158 6.32918V10.3768C23.4634 10.2778 22.8964 10.2966 22.3518 10.4319C21.8071 10.5672 21.2973 10.8161 20.8555 11.1621C20.4138 11.5082 20.0501 11.9436 19.7883 12.44C19.5265 12.9364 19.3726 13.4825 19.3365 14.0425C19.2995 14.5866 19.3755 15.1325 19.5599 15.6458C19.7442 16.1591 20.0328 16.6286 20.4076 17.0249C20.8626 17.5078 21.4307 17.87 22.0605 18.0789C22.6904 18.2877 23.3623 18.3367 24.0158 18.2214V22.2667Z" fill="white"/>
</svg>
